<svg xmlns="http://www.w3.org/2000/svg" xmlns:xlink="http://www.w3.org/1999/xlink" id="Layer_1" width="70" height="30" x="0" y="0" enable-background="new 0 0 70 30" version="1.1" viewBox="0 0 70 30" xml:space="preserve"><metadata><sfw xmlns="http://ns.adobe.com/SaveForWeb/1.0/"><slices/><sliceSourceBounds width="60.308" height="28" x="3012" y="-914" bottomLeftOrigin="true"/></sfw></metadata><g><g><polygon fill="#754E37" points="14 1 2 8 2 22 14 29"/><polygon fill="#EB743B" points="15 1 27 8 27 22 15 29"/></g><g><path fill="#754E37" d="M31.16,25V5.236h6.718c2.308,0,4.068,0.467,5.285,1.399c1.215,0.934,1.823,2.288,1.823,4.063 c0,1.007-0.221,1.883-0.662,2.629c-0.44,0.747-1.091,1.296-1.95,1.646c0.927,0.271,1.646,0.789,2.154,1.553 s0.764,1.699,0.764,2.808c0,1.968-0.571,3.404-1.714,4.309C42.436,24.548,40.717,25,38.421,25H31.16z M35.961,13.447h2.308 c1.277-0.034,1.917-0.713,1.917-2.036c0-0.78-0.159-1.337-0.476-1.671c-0.316-0.333-0.803-0.5-1.459-0.5h-2.29V13.447z M35.961,16.789v4.258h2.46c0.667,0,1.179-0.181,1.535-0.545c0.356-0.362,0.534-0.862,0.534-1.499c0-1.43-0.576-2.168-1.729-2.214 H35.961z"/><path fill="#EB743B" d="M48.176,25V5.236h6.718c2.308,0,4.068,0.467,5.285,1.399c1.215,0.934,1.823,2.288,1.823,4.063 c0,1.007-0.221,1.883-0.662,2.629c-0.44,0.747-1.091,1.296-1.95,1.646c0.927,0.271,1.646,0.789,2.154,1.553 s0.764,1.699,0.764,2.808c0,1.968-0.571,3.404-1.714,4.309C59.451,24.548,57.732,25,55.437,25H48.176z M52.977,13.447h2.308 c1.277-0.034,1.917-0.713,1.917-2.036c0-0.78-0.159-1.337-0.476-1.671c-0.316-0.333-0.803-0.5-1.459-0.5h-2.29V13.447z M52.977,16.789v4.258h2.46c0.667,0,1.179-0.181,1.535-0.545c0.356-0.362,0.534-0.862,0.534-1.499c0-1.43-0.576-2.168-1.729-2.214 H52.977z"/></g></g></svg>