<svg xmlns="http://www.w3.org/2000/svg" xmlns:svg="http://www.w3.org/2000/svg" id="svg6648" width="187.391" height="216.381" version="1.1" viewBox="0 0 175.679 202.857"><defs id="defs6650"><filter style="color-interpolation-filters:sRGB" id="filter4894"><feFlood id="feFlood4896" flood-color="#000" flood-opacity=".498" result="flood"/><feComposite id="feComposite4898" in="flood" in2="SourceGraphic" operator="in" result="composite1"/><feGaussianBlur id="feGaussianBlur4900" in="composite1" result="blur" stdDeviation="1.7"/><feOffset id="feOffset4902" dx="2.4" dy="1" result="offset"/><feComposite id="feComposite4904" in="offset" in2="offset" operator="atop" result="fbSourceGraphic"/><feColorMatrix id="feColorMatrix4906" in="fbSourceGraphic" result="fbSourceGraphicAlpha" values="0 0 0 -1 0 0 0 0 -1 0 0 0 0 -1 0 0 0 0 1 0"/><feFlood id="feFlood4908" flood-color="#000" flood-opacity=".498" in="fbSourceGraphic" result="flood"/><feComposite id="feComposite4910" in="flood" in2="fbSourceGraphic" operator="in" result="composite1"/><feGaussianBlur id="feGaussianBlur4912" in="composite1" result="blur" stdDeviation="1.7"/><feOffset id="feOffset4914" dx="2.4" dy="1" result="offset"/><feComposite id="feComposite4916" in="offset" in2="offset" operator="atop" result="composite2"/></filter><filter style="color-interpolation-filters:sRGB" id="filter5856"><feFlood id="feFlood5858" flood-color="#000" flood-opacity=".498" result="flood"/><feComposite id="feComposite5860" in="flood" in2="SourceGraphic" operator="in" result="composite1"/><feGaussianBlur id="feGaussianBlur5862" in="composite1" result="blur" stdDeviation="3.9"/><feOffset id="feOffset5864" dx="1.8" dy="1.8" result="offset"/><feComposite id="feComposite5866" in="SourceGraphic" in2="offset" operator="over" result="composite2"/></filter><filter style="color-interpolation-filters:sRGB" id="filter5040"><feFlood id="feFlood5042" flood-color="#000" flood-opacity=".498" result="flood"/><feComposite id="feComposite5044" in="flood" in2="SourceGraphic" operator="in" result="composite1"/><feGaussianBlur id="feGaussianBlur5046" in="composite1" result="blur" stdDeviation="4.688"/><feOffset id="feOffset5048" dx="2.4" dy="1" result="offset"/><feComposite id="feComposite5050" in="offset" in2="offset" operator="atop" result="fbSourceGraphic"/><feColorMatrix id="feColorMatrix5052" in="fbSourceGraphic" result="fbSourceGraphicAlpha" values="0 0 0 -1 0 0 0 0 -1 0 0 0 0 -1 0 0 0 0 1 0"/><feFlood id="feFlood5054" flood-color="#000" flood-opacity=".498" in="fbSourceGraphic" result="flood"/><feComposite id="feComposite5056" in="flood" in2="fbSourceGraphic" operator="in" result="composite1"/><feGaussianBlur id="feGaussianBlur5058" in="composite1" result="blur" stdDeviation="4.7"/><feOffset id="feOffset5060" dx="2.4" dy="1" result="offset"/><feComposite id="feComposite5062" in="offset" in2="offset" operator="atop" result="fbSourceGraphic"/><feColorMatrix id="feColorMatrix5064" in="fbSourceGraphic" result="fbSourceGraphicAlpha" values="0 0 0 -1 0 0 0 0 -1 0 0 0 0 -1 0 0 0 0 1 0"/><feFlood id="feFlood5066" flood-color="#000" flood-opacity=".498" in="fbSourceGraphic" result="flood"/><feComposite id="feComposite5068" in="flood" in2="fbSourceGraphic" operator="in" result="composite1"/><feGaussianBlur id="feGaussianBlur5070" in="composite1" result="blur" stdDeviation="4.7"/><feOffset id="feOffset5072" dx="2.4" dy="1" result="offset"/><feComposite id="feComposite5074" in="offset" in2="offset" operator="atop" result="fbSourceGraphic"/><feColorMatrix id="feColorMatrix5076" in="fbSourceGraphic" result="fbSourceGraphicAlpha" values="0 0 0 -1 0 0 0 0 -1 0 0 0 0 -1 0 0 0 0 1 0"/><feFlood id="feFlood5078" flood-color="#000" flood-opacity=".498" in="fbSourceGraphic" result="flood"/><feComposite id="feComposite5080" in="flood" in2="fbSourceGraphic" operator="in" result="composite1"/><feGaussianBlur id="feGaussianBlur5082" in="composite1" result="blur" stdDeviation="4.7"/><feOffset id="feOffset5084" dx="2.4" dy="1" result="offset"/><feComposite id="feComposite5086" in="offset" in2="offset" operator="atop" result="fbSourceGraphic"/><feColorMatrix id="feColorMatrix5088" in="fbSourceGraphic" result="fbSourceGraphicAlpha" values="0 0 0 -1 0 0 0 0 -1 0 0 0 0 -1 0 0 0 0 1 0"/><feFlood id="feFlood5090" flood-color="#000" flood-opacity=".498" in="fbSourceGraphic" result="flood"/><feComposite id="feComposite5092" in="flood" in2="fbSourceGraphic" operator="in" result="composite1"/><feGaussianBlur id="feGaussianBlur5094" in="composite1" result="blur" stdDeviation="4.7"/><feOffset id="feOffset5096" dx="2.4" dy="1" result="offset"/><feComposite id="feComposite5098" in="offset" in2="offset" operator="atop" result="fbSourceGraphic"/><feColorMatrix id="feColorMatrix5100" in="fbSourceGraphic" result="fbSourceGraphicAlpha" values="0 0 0 -1 0 0 0 0 -1 0 0 0 0 -1 0 0 0 0 1 0"/><feFlood id="feFlood5102" flood-color="#000" flood-opacity=".498" in="fbSourceGraphic" result="flood"/><feComposite id="feComposite5104" in="flood" in2="fbSourceGraphic" operator="in" result="composite1"/><feGaussianBlur id="feGaussianBlur5106" in="composite1" result="blur" stdDeviation="4.7"/><feOffset id="feOffset5108" dx="2.4" dy="1" result="offset"/><feComposite id="feComposite5110" in="offset" in2="offset" operator="atop" result="composite2"/></filter><filter style="color-interpolation-filters:sRGB" id="filter5856-3"><feFlood id="feFlood5858-8" flood-color="#000" flood-opacity=".498" result="flood"/><feComposite id="feComposite5860-3" in="flood" in2="SourceGraphic" operator="in" result="composite1"/><feGaussianBlur id="feGaussianBlur5862-0" in="composite1" result="blur" stdDeviation="3.9"/><feOffset id="feOffset5864-6" dx="1.8" dy="1.8" result="offset"/><feComposite id="feComposite5866-5" in="SourceGraphic" in2="offset" operator="over" result="composite2"/></filter><filter style="color-interpolation-filters:sRGB" id="filter5040-8"><feFlood id="feFlood5042-9" flood-color="#000" flood-opacity=".498" result="flood"/><feComposite id="feComposite5044-4" in="flood" in2="SourceGraphic" operator="in" result="composite1"/><feGaussianBlur id="feGaussianBlur5046-9" in="composite1" result="blur" stdDeviation="4.688"/><feOffset id="feOffset5048-4" dx="2.4" dy="1" result="offset"/><feComposite id="feComposite5050-9" in="offset" in2="offset" operator="atop" result="fbSourceGraphic"/><feColorMatrix id="feColorMatrix5052-9" in="fbSourceGraphic" result="fbSourceGraphicAlpha" values="0 0 0 -1 0 0 0 0 -1 0 0 0 0 -1 0 0 0 0 1 0"/><feFlood id="feFlood5054-4" flood-color="#000" flood-opacity=".498" in="fbSourceGraphic" result="flood"/><feComposite id="feComposite5056-7" in="flood" in2="fbSourceGraphic" operator="in" result="composite1"/><feGaussianBlur id="feGaussianBlur5058-5" in="composite1" result="blur" stdDeviation="4.7"/><feOffset id="feOffset5060-4" dx="2.4" dy="1" result="offset"/><feComposite id="feComposite5062-6" in="offset" in2="offset" operator="atop" result="fbSourceGraphic"/><feColorMatrix id="feColorMatrix5064-9" in="fbSourceGraphic" result="fbSourceGraphicAlpha" values="0 0 0 -1 0 0 0 0 -1 0 0 0 0 -1 0 0 0 0 1 0"/><feFlood id="feFlood5066-9" flood-color="#000" flood-opacity=".498" in="fbSourceGraphic" result="flood"/><feComposite id="feComposite5068-3" in="flood" in2="fbSourceGraphic" operator="in" result="composite1"/><feGaussianBlur id="feGaussianBlur5070-8" in="composite1" result="blur" stdDeviation="4.7"/><feOffset id="feOffset5072-0" dx="2.4" dy="1" result="offset"/><feComposite id="feComposite5074-4" in="offset" in2="offset" operator="atop" result="fbSourceGraphic"/><feColorMatrix id="feColorMatrix5076-8" in="fbSourceGraphic" result="fbSourceGraphicAlpha" values="0 0 0 -1 0 0 0 0 -1 0 0 0 0 -1 0 0 0 0 1 0"/><feFlood id="feFlood5078-5" flood-color="#000" flood-opacity=".498" in="fbSourceGraphic" result="flood"/><feComposite id="feComposite5080-4" in="flood" in2="fbSourceGraphic" operator="in" result="composite1"/><feGaussianBlur id="feGaussianBlur5082-0" in="composite1" result="blur" stdDeviation="4.7"/><feOffset id="feOffset5084-1" dx="2.4" dy="1" result="offset"/><feComposite id="feComposite5086-8" in="offset" in2="offset" operator="atop" result="fbSourceGraphic"/><feColorMatrix id="feColorMatrix5088-2" in="fbSourceGraphic" result="fbSourceGraphicAlpha" values="0 0 0 -1 0 0 0 0 -1 0 0 0 0 -1 0 0 0 0 1 0"/><feFlood id="feFlood5090-4" flood-color="#000" flood-opacity=".498" in="fbSourceGraphic" result="flood"/><feComposite id="feComposite5092-2" in="flood" in2="fbSourceGraphic" operator="in" result="composite1"/><feGaussianBlur id="feGaussianBlur5094-4" in="composite1" result="blur" stdDeviation="4.7"/><feOffset id="feOffset5096-5" dx="2.4" dy="1" result="offset"/><feComposite id="feComposite5098-3" in="offset" in2="offset" operator="atop" result="fbSourceGraphic"/><feColorMatrix id="feColorMatrix5100-6" in="fbSourceGraphic" result="fbSourceGraphicAlpha" values="0 0 0 -1 0 0 0 0 -1 0 0 0 0 -1 0 0 0 0 1 0"/><feFlood id="feFlood5102-5" flood-color="#000" flood-opacity=".498" in="fbSourceGraphic" result="flood"/><feComposite id="feComposite5104-8" in="flood" in2="fbSourceGraphic" operator="in" result="composite1"/><feGaussianBlur id="feGaussianBlur5106-3" in="composite1" result="blur" stdDeviation="4.7"/><feOffset id="feOffset5108-3" dx="2.4" dy="1" result="offset"/><feComposite id="feComposite5110-9" in="offset" in2="offset" operator="atop" result="composite2"/></filter></defs><metadata id="metadata6653"/><g id="layer1" transform="translate(-280.73166,-188.07649)"><path id="path5995" d="m 368.59464,392.41805 -87.83973,-50.71429 0,-101.42857 87.83972,-50.71429 87.83973,50.71428 0,101.42858 z" style="display:inline;opacity:1;fill:#754e37;fill-opacity:1;fill-rule:evenodd;stroke:none;stroke-width:1px;stroke-linecap:butt;stroke-linejoin:miter;stroke-opacity:1"/><ellipse id="ellipse6057" cx="369.759" cy="221.944" rx="2.767" ry="2.662" style="display:inline;opacity:1;fill:#fff;fill-opacity:1;stroke:none;stroke-width:1.38999999;stroke-miterlimit:4;stroke-dasharray:none;stroke-opacity:1"/><path id="path6059" d="m 367.41851,224.67498 c 2.12814,0.34131 2.64972,0.57546 4.54005,-0.0682 1.87044,-0.63696 4.04347,6.4167 4.04347,6.4167 2.37753,5.93849 -16.10298,5.93888 -13.62013,0 0,0 2.55377,-6.89455 5.03661,-6.34844 z" style="display:inline;fill:#fff;fill-opacity:1;fill-rule:evenodd;stroke:none;stroke-width:1px;stroke-linecap:butt;stroke-linejoin:miter;stroke-opacity:1"/><ellipse style="display:inline;opacity:1;fill:#fff;fill-opacity:1;stroke:none;stroke-width:1.38999999;stroke-miterlimit:4;stroke-dasharray:none;stroke-opacity:1" id="ellipse6061" cx="354.673" cy="233.481" rx="2.767" ry="2.662"/><path style="display:inline;fill:#fff;fill-opacity:1;fill-rule:evenodd;stroke:none;stroke-width:1px;stroke-linecap:butt;stroke-linejoin:miter;stroke-opacity:1" id="path6063" d="m 352.33219,236.21157 c 2.12815,0.34132 2.64972,0.57547 4.54005,-0.0682 1.87044,-0.63696 4.04348,6.41672 4.04348,6.41672 2.37752,5.93847 -16.10298,5.93887 -13.62014,0 0,0 2.55378,-6.89456 5.03661,-6.34846 z"/><ellipse id="ellipse6065" cx="360.353" cy="251.407" rx="2.767" ry="2.662" style="display:inline;opacity:1;fill:#fff;fill-opacity:1;stroke:none;stroke-width:1.38999999;stroke-miterlimit:4;stroke-dasharray:none;stroke-opacity:1"/><path id="path6067" d="m 358.01175,254.13767 c 2.12814,0.34132 2.64971,0.57546 4.54004,-0.0682 1.87044,-0.63696 4.04348,6.41671 4.04348,6.41671 2.37753,5.93848 -16.10298,5.93888 -13.62014,0 0,0 2.55378,-6.89456 5.03662,-6.34845 z" style="display:inline;fill:#fff;fill-opacity:1;fill-rule:evenodd;stroke:none;stroke-width:1px;stroke-linecap:butt;stroke-linejoin:miter;stroke-opacity:1"/><ellipse style="display:inline;opacity:1;fill:#fff;fill-opacity:1;stroke:none;stroke-width:1.38999999;stroke-miterlimit:4;stroke-dasharray:none;stroke-opacity:1" id="ellipse6069" cx="379.344" cy="250.875" rx="2.767" ry="2.662"/><path style="display:inline;fill:#fff;fill-opacity:1;fill-rule:evenodd;stroke:none;stroke-width:1px;stroke-linecap:butt;stroke-linejoin:miter;stroke-opacity:1" id="path6071" d="m 377.00275,253.60521 c 2.12815,0.34132 2.64973,0.57546 4.54006,-0.0682 1.87044,-0.63696 4.04347,6.41671 4.04347,6.41671 2.37752,5.93848 -16.10298,5.93888 -13.62013,0 0,0 2.55377,-6.89456 5.0366,-6.34845 z"/><ellipse id="ellipse6073" cx="384.668" cy="232.416" rx="2.767" ry="2.662" style="display:inline;opacity:1;fill:#fff;fill-opacity:1;stroke:none;stroke-width:1.38999999;stroke-miterlimit:4;stroke-dasharray:none;stroke-opacity:1"/><path id="path6075" d="m 382.32734,235.14665 c 2.12815,0.34132 2.64972,0.57547 4.54005,-0.0682 1.87044,-0.63695 4.04348,6.41672 4.04348,6.41672 2.37752,5.93847 -16.10298,5.93886 -13.62014,0 0,0 2.55378,-6.89456 5.03661,-6.34846 z" style="display:inline;fill:#fff;fill-opacity:1;fill-rule:evenodd;stroke:none;stroke-width:1px;stroke-linecap:butt;stroke-linejoin:miter;stroke-opacity:1"/><ellipse style="display:inline;opacity:1;fill:#fff;fill-opacity:1;stroke:none;stroke-width:1.38999999;stroke-miterlimit:4;stroke-dasharray:none;stroke-opacity:1" id="ellipse6077" cx="323.293" cy="255.785" rx="2.767" ry="2.662"/><path style="display:inline;fill:#fff;fill-opacity:1;fill-rule:evenodd;stroke:none;stroke-width:1px;stroke-linecap:butt;stroke-linejoin:miter;stroke-opacity:1" id="path6079" d="m 320.95149,258.51509 c 2.12814,0.34131 2.64972,0.57546 4.54005,-0.0682 1.87044,-0.63696 4.04347,6.4167 4.04347,6.4167 2.37753,5.93849 -16.10298,5.93888 -13.62013,0 0,0 2.55377,-6.89455 5.03661,-6.34844 z"/><ellipse id="ellipse6081" cx="308.206" cy="267.321" rx="2.767" ry="2.662" style="display:inline;opacity:1;fill:#fff;fill-opacity:1;stroke:none;stroke-width:1.38999999;stroke-miterlimit:4;stroke-dasharray:none;stroke-opacity:1"/><path id="path6083" d="m 305.86517,270.05168 c 2.12815,0.34132 2.64972,0.57547 4.54005,-0.0682 1.87044,-0.63696 4.04348,6.41672 4.04348,6.41672 2.37752,5.93847 -16.10298,5.93887 -13.62014,0 0,0 2.55378,-6.89456 5.03661,-6.34846 z" style="display:inline;fill:#fff;fill-opacity:1;fill-rule:evenodd;stroke:none;stroke-width:1px;stroke-linecap:butt;stroke-linejoin:miter;stroke-opacity:1"/><ellipse style="display:inline;opacity:1;fill:#fff;fill-opacity:1;stroke:none;stroke-width:1.38999999;stroke-miterlimit:4;stroke-dasharray:none;stroke-opacity:1" id="ellipse6085" cx="313.886" cy="285.247" rx="2.767" ry="2.662"/><path style="display:inline;fill:#fff;fill-opacity:1;fill-rule:evenodd;stroke:none;stroke-width:1px;stroke-linecap:butt;stroke-linejoin:miter;stroke-opacity:1" id="path6087" d="m 311.54473,287.97778 c 2.12814,0.34132 2.64971,0.57546 4.54004,-0.0682 1.87044,-0.63696 4.04348,6.41671 4.04348,6.41671 2.37753,5.93848 -16.10298,5.93888 -13.62014,0 0,0 2.55378,-6.89456 5.03662,-6.34845 z"/><ellipse id="ellipse6089" cx="332.877" cy="284.715" rx="2.767" ry="2.662" style="display:inline;opacity:1;fill:#fff;fill-opacity:1;stroke:none;stroke-width:1.38999999;stroke-miterlimit:4;stroke-dasharray:none;stroke-opacity:1"/><path id="path6091" d="m 330.53573,287.44532 c 2.12815,0.34132 2.64973,0.57546 4.54006,-0.0682 1.87044,-0.63696 4.04347,6.41671 4.04347,6.41671 2.37752,5.93848 -16.10298,5.93888 -13.62013,0 0,0 2.55377,-6.89456 5.0366,-6.34845 z" style="display:inline;fill:#fff;fill-opacity:1;fill-rule:evenodd;stroke:none;stroke-width:1px;stroke-linecap:butt;stroke-linejoin:miter;stroke-opacity:1"/><ellipse style="display:inline;opacity:1;fill:#fff;fill-opacity:1;stroke:none;stroke-width:1.38999999;stroke-miterlimit:4;stroke-dasharray:none;stroke-opacity:1" id="ellipse6093" cx="338.201" cy="266.256" rx="2.767" ry="2.662"/><path style="display:inline;fill:#fff;fill-opacity:1;fill-rule:evenodd;stroke:none;stroke-width:1px;stroke-linecap:butt;stroke-linejoin:miter;stroke-opacity:1" id="path6095" d="m 335.86032,268.98676 c 2.12815,0.34132 2.64972,0.57547 4.54005,-0.0682 1.87044,-0.63695 4.04348,6.41672 4.04348,6.41672 2.37752,5.93847 -16.10298,5.93886 -13.62014,0 0,0 2.55378,-6.89456 5.03661,-6.34846 z"/><ellipse id="ellipse6097" cx="340.465" cy="306.797" rx="2.767" ry="2.662" style="display:inline;opacity:1;fill:#fff;fill-opacity:1;stroke:none;stroke-width:1.38999999;stroke-miterlimit:4;stroke-dasharray:none;stroke-opacity:1"/><path id="path6099" d="m 338.12408,309.52779 c 2.12814,0.34131 2.64972,0.57546 4.54005,-0.0682 1.87044,-0.63696 4.04347,6.4167 4.04347,6.4167 2.37753,5.93849 -16.10298,5.93888 -13.62013,0 0,0 2.55377,-6.89455 5.03661,-6.34844 z" style="display:inline;fill:#fff;fill-opacity:1;fill-rule:evenodd;stroke:none;stroke-width:1px;stroke-linecap:butt;stroke-linejoin:miter;stroke-opacity:1"/><ellipse style="display:inline;opacity:1;fill:#fff;fill-opacity:1;stroke:none;stroke-width:1.38999999;stroke-miterlimit:4;stroke-dasharray:none;stroke-opacity:1" id="ellipse6101" cx="325.379" cy="318.334" rx="2.767" ry="2.662"/><path style="display:inline;fill:#fff;fill-opacity:1;fill-rule:evenodd;stroke:none;stroke-width:1px;stroke-linecap:butt;stroke-linejoin:miter;stroke-opacity:1" id="path6103" d="m 323.03776,321.06438 c 2.12815,0.34132 2.64972,0.57547 4.54005,-0.0682 1.87044,-0.63696 4.04348,6.41672 4.04348,6.41672 2.37752,5.93847 -16.10298,5.93887 -13.62014,0 0,0 2.55378,-6.89456 5.03661,-6.34846 z"/><ellipse id="ellipse6105" cx="331.058" cy="336.26" rx="2.767" ry="2.662" style="display:inline;opacity:1;fill:#fff;fill-opacity:1;stroke:none;stroke-width:1.38999999;stroke-miterlimit:4;stroke-dasharray:none;stroke-opacity:1"/><path id="path6107" d="m 328.71732,338.99048 c 2.12814,0.34132 2.64971,0.57546 4.54004,-0.0682 1.87044,-0.63696 4.04348,6.41671 4.04348,6.41671 2.37753,5.93848 -16.10298,5.93888 -13.62014,0 0,0 2.55378,-6.89456 5.03662,-6.34845 z" style="display:inline;fill:#fff;fill-opacity:1;fill-rule:evenodd;stroke:none;stroke-width:1px;stroke-linecap:butt;stroke-linejoin:miter;stroke-opacity:1"/><ellipse style="display:inline;opacity:1;fill:#fff;fill-opacity:1;stroke:none;stroke-width:1.38999999;stroke-miterlimit:4;stroke-dasharray:none;stroke-opacity:1" id="ellipse6109" cx="350.049" cy="335.727" rx="2.767" ry="2.662"/><path style="display:inline;fill:#fff;fill-opacity:1;fill-rule:evenodd;stroke:none;stroke-width:1px;stroke-linecap:butt;stroke-linejoin:miter;stroke-opacity:1" id="path6111" d="m 347.70832,338.45802 c 2.12815,0.34132 2.64973,0.57546 4.54006,-0.0682 1.87044,-0.63696 4.04347,6.41671 4.04347,6.41671 2.37752,5.93848 -16.10298,5.93888 -13.62013,0 0,0 2.55377,-6.89456 5.0366,-6.34845 z"/><ellipse id="ellipse6113" cx="355.374" cy="317.269" rx="2.767" ry="2.662" style="display:inline;opacity:1;fill:#fff;fill-opacity:1;stroke:none;stroke-width:1.38999999;stroke-miterlimit:4;stroke-dasharray:none;stroke-opacity:1"/><path id="path6115" d="m 353.03291,319.99946 c 2.12815,0.34132 2.64972,0.57547 4.54005,-0.0682 1.87044,-0.63695 4.04348,6.41672 4.04348,6.41672 2.37752,5.93847 -16.10298,5.93886 -13.62014,0 0,0 2.55378,-6.89456 5.03661,-6.34846 z" style="display:inline;fill:#fff;fill-opacity:1;fill-rule:evenodd;stroke:none;stroke-width:1px;stroke-linecap:butt;stroke-linejoin:miter;stroke-opacity:1"/><ellipse style="display:inline;opacity:1;fill:#fff;fill-opacity:1;stroke:none;stroke-width:1.38999999;stroke-miterlimit:4;stroke-dasharray:none;stroke-opacity:1" id="ellipse6117" cx="394.003" cy="307.302" rx="2.767" ry="2.662"/><path style="display:inline;fill:#fff;fill-opacity:1;fill-rule:evenodd;stroke:none;stroke-width:1px;stroke-linecap:butt;stroke-linejoin:miter;stroke-opacity:1" id="path6119" d="m 391.66216,310.03287 c 2.12814,0.34131 2.64972,0.57546 4.54005,-0.0682 1.87044,-0.63696 4.04347,6.4167 4.04347,6.4167 2.37753,5.93849 -16.10298,5.93888 -13.62013,0 0,0 2.55377,-6.89455 5.03661,-6.34844 z"/><ellipse id="ellipse6121" cx="378.917" cy="318.839" rx="2.767" ry="2.662" style="display:inline;opacity:1;fill:#fff;fill-opacity:1;stroke:none;stroke-width:1.38999999;stroke-miterlimit:4;stroke-dasharray:none;stroke-opacity:1"/><path id="path6123" d="m 376.57584,321.56946 c 2.12815,0.34132 2.64972,0.57547 4.54005,-0.0682 1.87044,-0.63696 4.04348,6.41672 4.04348,6.41672 2.37752,5.93847 -16.10298,5.93887 -13.62014,0 0,0 2.55378,-6.89456 5.03661,-6.34846 z" style="display:inline;fill:#fff;fill-opacity:1;fill-rule:evenodd;stroke:none;stroke-width:1px;stroke-linecap:butt;stroke-linejoin:miter;stroke-opacity:1"/><ellipse style="display:inline;opacity:1;fill:#fff;fill-opacity:1;stroke:none;stroke-width:1.38999999;stroke-miterlimit:4;stroke-dasharray:none;stroke-opacity:1" id="ellipse6125" cx="384.596" cy="336.765" rx="2.767" ry="2.662"/><path style="display:inline;fill:#fff;fill-opacity:1;fill-rule:evenodd;stroke:none;stroke-width:1px;stroke-linecap:butt;stroke-linejoin:miter;stroke-opacity:1" id="path6127" d="m 382.2554,339.49556 c 2.12814,0.34132 2.64971,0.57546 4.54004,-0.0682 1.87044,-0.63696 4.04348,6.41671 4.04348,6.41671 2.37753,5.93848 -16.10298,5.93888 -13.62014,0 0,0 2.55378,-6.89456 5.03662,-6.34845 z"/><ellipse id="ellipse6129" cx="403.587" cy="336.233" rx="2.767" ry="2.662" style="display:inline;opacity:1;fill:#fff;fill-opacity:1;stroke:none;stroke-width:1.38999999;stroke-miterlimit:4;stroke-dasharray:none;stroke-opacity:1"/><path id="path6131" d="m 401.2464,338.9631 c 2.12815,0.34132 2.64973,0.57546 4.54006,-0.0682 1.87044,-0.63696 4.04347,6.41671 4.04347,6.41671 2.37752,5.93848 -16.10298,5.93888 -13.62013,0 0,0 2.55377,-6.89456 5.0366,-6.34845 z" style="display:inline;fill:#fff;fill-opacity:1;fill-rule:evenodd;stroke:none;stroke-width:1px;stroke-linecap:butt;stroke-linejoin:miter;stroke-opacity:1"/><ellipse style="display:inline;opacity:1;fill:#fff;fill-opacity:1;stroke:none;stroke-width:1.38999999;stroke-miterlimit:4;stroke-dasharray:none;stroke-opacity:1" id="ellipse6133" cx="408.912" cy="317.774" rx="2.767" ry="2.662"/><path style="display:inline;fill:#fff;fill-opacity:1;fill-rule:evenodd;stroke:none;stroke-width:1px;stroke-linecap:butt;stroke-linejoin:miter;stroke-opacity:1" id="path6135" d="m 406.57099,320.50454 c 2.12815,0.34132 2.64972,0.57547 4.54005,-0.0682 1.87044,-0.63695 4.04348,6.41672 4.04348,6.41672 2.37752,5.93847 -16.10298,5.93886 -13.62014,0 0,0 2.55378,-6.89456 5.03661,-6.34846 z"/><ellipse id="ellipse6137" cx="413.196" cy="255.279" rx="2.767" ry="2.662" style="display:inline;opacity:1;fill:#fff;fill-opacity:1;stroke:none;stroke-width:1.38999999;stroke-miterlimit:4;stroke-dasharray:none;stroke-opacity:1"/><path id="path6139" d="m 410.85506,258.01002 c 2.12814,0.34131 2.64972,0.57546 4.54005,-0.0682 1.87044,-0.63696 4.04347,6.4167 4.04347,6.4167 2.37753,5.93849 -16.10298,5.93888 -13.62013,0 0,0 2.55377,-6.89455 5.03661,-6.34844 z" style="display:inline;fill:#fff;fill-opacity:1;fill-rule:evenodd;stroke:none;stroke-width:1px;stroke-linecap:butt;stroke-linejoin:miter;stroke-opacity:1"/><ellipse style="display:inline;opacity:1;fill:#fff;fill-opacity:1;stroke:none;stroke-width:1.38999999;stroke-miterlimit:4;stroke-dasharray:none;stroke-opacity:1" id="ellipse6141" cx="398.11" cy="266.816" rx="2.767" ry="2.662"/><path style="display:inline;fill:#fff;fill-opacity:1;fill-rule:evenodd;stroke:none;stroke-width:1px;stroke-linecap:butt;stroke-linejoin:miter;stroke-opacity:1" id="path6143" d="m 395.76874,269.54661 c 2.12815,0.34132 2.64972,0.57547 4.54005,-0.0682 1.87044,-0.63696 4.04348,6.41672 4.04348,6.41672 2.37752,5.93847 -16.10298,5.93887 -13.62014,0 0,0 2.55378,-6.89456 5.03661,-6.34846 z"/><ellipse id="ellipse6145" cx="403.789" cy="284.742" rx="2.767" ry="2.662" style="display:inline;opacity:1;fill:#fff;fill-opacity:1;stroke:none;stroke-width:1.38999999;stroke-miterlimit:4;stroke-dasharray:none;stroke-opacity:1"/><path id="path6147" d="m 401.4483,287.47271 c 2.12814,0.34132 2.64971,0.57546 4.54004,-0.0682 1.87044,-0.63696 4.04348,6.41671 4.04348,6.41671 2.37753,5.93848 -16.10298,5.93888 -13.62014,0 0,0 2.55378,-6.89456 5.03662,-6.34845 z" style="display:inline;fill:#fff;fill-opacity:1;fill-rule:evenodd;stroke:none;stroke-width:1px;stroke-linecap:butt;stroke-linejoin:miter;stroke-opacity:1"/><ellipse style="display:inline;opacity:1;fill:#fff;fill-opacity:1;stroke:none;stroke-width:1.38999999;stroke-miterlimit:4;stroke-dasharray:none;stroke-opacity:1" id="ellipse6149" cx="422.78" cy="284.21" rx="2.767" ry="2.662"/><path style="display:inline;fill:#fff;fill-opacity:1;fill-rule:evenodd;stroke:none;stroke-width:1px;stroke-linecap:butt;stroke-linejoin:miter;stroke-opacity:1" id="path6151" d="m 420.4393,286.94025 c 2.12815,0.34132 2.64973,0.57546 4.54006,-0.0682 1.87044,-0.63696 4.04347,6.41671 4.04347,6.41671 2.37752,5.93848 -16.10298,5.93888 -13.62013,0 0,0 2.55377,-6.89456 5.0366,-6.34845 z"/><ellipse id="ellipse6153" cx="428.105" cy="265.751" rx="2.767" ry="2.662" style="display:inline;opacity:1;fill:#fff;fill-opacity:1;stroke:none;stroke-width:1.38999999;stroke-miterlimit:4;stroke-dasharray:none;stroke-opacity:1"/><path id="path6155" d="m 425.76389,268.48169 c 2.12815,0.34132 2.64972,0.57547 4.54005,-0.0682 1.87044,-0.63695 4.04348,6.41672 4.04348,6.41672 2.37752,5.93847 -16.10298,5.93886 -13.62014,0 0,0 2.55378,-6.89456 5.03661,-6.34846 z" style="display:inline;fill:#fff;fill-opacity:1;fill-rule:evenodd;stroke:none;stroke-width:1px;stroke-linecap:butt;stroke-linejoin:miter;stroke-opacity:1"/><g id="g6165" transform="matrix(1.25,0,0,-1.25,345.44962,313.91418)" style="display:inline;stroke:#fff;stroke-width:1.60000002;stroke-miterlimit:4;stroke-dasharray:none;stroke-opacity:1"><g id="g6167" transform="translate(18,34)" style="stroke:#fff;stroke-width:1.60000002;stroke-miterlimit:4;stroke-dasharray:none;stroke-opacity:1"><path id="path6169" d="m 0,0 -12,-7 0,-14 12,-7 0,28 z" style="fill:#754e37;fill-opacity:1;fill-rule:nonzero;stroke:#fff;stroke-width:1.60000002;stroke-miterlimit:4;stroke-dasharray:none;stroke-opacity:1"/></g><g id="g6171" transform="translate(19,34)" style="stroke:#fff;stroke-width:1.60000002;stroke-miterlimit:4;stroke-dasharray:none;stroke-opacity:1"><path id="path6173" d="M 0,0 12,-7 12,-21 0,-28 0,0 Z" style="fill:#eb743b;fill-opacity:1;fill-rule:nonzero;stroke:#fff;stroke-width:1.60000002;stroke-miterlimit:4;stroke-dasharray:none;stroke-opacity:1"/></g></g></g></svg>