<svg xmlns="http://www.w3.org/2000/svg" xmlns:svg="http://www.w3.org/2000/svg" id="svg6648" width="187.391" height="216.381" version="1.1" viewBox="0 0 175.679 202.857"><defs id="defs6650"><filter style="color-interpolation-filters:sRGB" id="filter4894"><feFlood id="feFlood4896" flood-color="#000" flood-opacity=".498" result="flood"/><feComposite id="feComposite4898" in="flood" in2="SourceGraphic" operator="in" result="composite1"/><feGaussianBlur id="feGaussianBlur4900" in="composite1" result="blur" stdDeviation="1.7"/><feOffset id="feOffset4902" dx="2.4" dy="1" result="offset"/><feComposite id="feComposite4904" in="offset" in2="offset" operator="atop" result="fbSourceGraphic"/><feColorMatrix id="feColorMatrix4906" in="fbSourceGraphic" result="fbSourceGraphicAlpha" values="0 0 0 -1 0 0 0 0 -1 0 0 0 0 -1 0 0 0 0 1 0"/><feFlood id="feFlood4908" flood-color="#000" flood-opacity=".498" in="fbSourceGraphic" result="flood"/><feComposite id="feComposite4910" in="flood" in2="fbSourceGraphic" operator="in" result="composite1"/><feGaussianBlur id="feGaussianBlur4912" in="composite1" result="blur" stdDeviation="1.7"/><feOffset id="feOffset4914" dx="2.4" dy="1" result="offset"/><feComposite id="feComposite4916" in="offset" in2="offset" operator="atop" result="composite2"/></filter></defs><metadata id="metadata6653"/><g id="layer1" transform="translate(-280.73166,-188.07649)"><path style="display:inline;opacity:1;fill:#754e37;fill-opacity:1;fill-rule:evenodd;stroke:none;stroke-width:1px;stroke-linecap:butt;stroke-linejoin:miter;stroke-opacity:1" id="path3338" d="m 368.57138,390.93364 -87.83972,-50.71428 0,-101.42858 87.83972,-50.71429 87.83972,50.71429 0,101.42857 z"/><path id="path4376" d="m 365.74607,285.93493 70.8178,15.0008 -6.6283,31.7459 -71.1666,-17.79166 z" style="display:inline;fill:#fff;fill-opacity:1;fill-rule:evenodd;stroke:none;stroke-width:1px;stroke-linecap:butt;stroke-linejoin:miter;stroke-opacity:1;filter:url(#filter4894)"/><path style="display:inline;fill:#fff;fill-opacity:1;fill-rule:evenodd;stroke:none;stroke-width:1px;stroke-linecap:butt;stroke-linejoin:miter;stroke-opacity:1" id="path4165" d="m 365.74607,285.93493 70.8178,15.0008 -6.6283,31.7459 -71.1666,-17.79166 z"/><path style="display:inline;fill:none;fill-rule:evenodd;stroke:#f0ab2f;stroke-width:1.38100004;stroke-linecap:butt;stroke-linejoin:miter;stroke-miterlimit:4;stroke-dasharray:none;stroke-opacity:1" id="path4187" d="m 426.09817,310.35485 c -17.4106,-7.37494 -38.9609,-8.76703 -53.7238,-14.30311"/><path style="display:inline;fill:none;fill-rule:evenodd;stroke:#f0ab2f;stroke-width:1.38139951px;stroke-linecap:butt;stroke-linejoin:miter;stroke-opacity:1" id="path4189" d="m 367.83927,307.56399 c 18.9877,3.77883 36.7414,7.93995 54.4215,10.46568"/><path style="display:inline;fill:#fff;fill-opacity:1;fill-rule:evenodd;stroke:#f0ab2f;stroke-width:1.10511971;stroke-linecap:butt;stroke-linejoin:miter;stroke-miterlimit:4;stroke-dasharray:none;stroke-opacity:1" id="path4192" d="m 296.32417,247.56062 -5.2342,4.88347 71.1663,50.2349 1.3976,-2.09098 6.9771,10.81377 9.3568,-1.37601 -4.8214,-2.81136 c -1.5514,0.13732 -1.5594,-0.77703 -1.5594,-0.77703 0,0 -0.6895,-1.18546 0.5935,-1.29237 1.3445,-0.1206 1.4165,1.49741 1.4165,1.49741 l 4.6164,2.50109 -3.6721,-8.5555 -9.4189,-2.09368 1.0469,-1.74565 z"/></g></svg>